HIERARCHY
ROOT Hips
{
	OFFSET 0.000000 0.000000 0.000000
	CHANNELS 6 Xposition Yposition Zposition Zrotation Xrotation Yrotation
	JOINT LHipJoint
	{
		OFFSET 0.000000 0.000000 0.000000
		CHANNELS 3 Zrotation Xrotation Yrotation
		JOINT LeftUpLeg
		{
			OFFSET 0.076937 -0.101296 0.047373
			CHANNELS 3 Zrotation Xrotation Yrotation
			JOINT LeftLeg
			{
				OFFSET 0.138181 -0.379650 0.000000
				CHANNELS 3 Zrotation Xrotation Yrotation
				JOINT LeftFoot
				{
					OFFSET 0.144621 -0.397343 0.000000
					CHANNELS 3 Zrotation Xrotation Yrotation
					JOINT LeftToeBase
					{
						OFFSET 0.008898 -0.024446 0.131094
						CHANNELS 3 Zrotation Xrotation Yrotation
						JOINT End_Site
						{
							OFFSET 0.000000 -0.000000 0.067149
							CHANNELS 3 Zrotation Xrotation Yrotation
							End Site
							{
								OFFSET 0.000000 -0.000000 0.020145
							}
						}
					}
				}
			}
		}
	}
	JOINT RHipJoint
	{
		OFFSET 0.000000 0.000000 0.000000
		CHANNELS 3 Zrotation Xrotation Yrotation
		JOINT RightUpLeg
		{
			OFFSET -0.073689 -0.101296 0.047373
			CHANNELS 3 Zrotation Xrotation Yrotation
			JOINT RightLeg
			{
				OFFSET -0.143511 -0.394292 0.000000
				CHANNELS 3 Zrotation Xrotation Yrotation
				JOINT RightFoot
				{
					OFFSET -0.144963 -0.398282 0.000000
					CHANNELS 3 Zrotation Xrotation Yrotation
					JOINT RightToeBase
					{
						OFFSET -0.009298 -0.025546 0.133386
						CHANNELS 3 Zrotation Xrotation Yrotation
						JOINT End_Site
						{
							OFFSET -0.000000 -0.000000 0.068344
							CHANNELS 3 Zrotation Xrotation Yrotation
							End Site
							{
								OFFSET -0.000000 -0.000000 0.020503
							}
						}
					}
				}
			}
		}
	}
	JOINT LowerBack
	{
		OFFSET 0.000000 0.000000 0.000000
		CHANNELS 3 Zrotation Xrotation Yrotation
		JOINT Spine
		{
			OFFSET 0.001596 0.114897 -0.010915
			CHANNELS 3 Zrotation Xrotation Yrotation
			JOINT Spine1
			{
				OFFSET 0.003202 0.115645 -0.002413
				CHANNELS 3 Zrotation Xrotation Yrotation
				JOINT Neck
				{
					OFFSET 0.000000 0.000000 0.000000
					CHANNELS 3 Zrotation Xrotation Yrotation
					JOINT Neck1
					{
						OFFSET -0.003058 0.098565 0.009709
						CHANNELS 3 Zrotation Xrotation Yrotation
						JOINT Head
						{
							OFFSET 0.005874 0.099418 -0.006997
							CHANNELS 3 Zrotation Xrotation Yrotation
							JOINT End_Site
							{
								OFFSET 0.002100 0.099931 -0.003523
								CHANNELS 3 Zrotation Xrotation Yrotation
								End Site
								{
									OFFSET 0.000630 0.029979 -0.001057
								}
							}
						}
					}
				}
				JOINT LeftShoulder
				{
					OFFSET 0.000000 0.000000 0.000000
					CHANNELS 3 Zrotation Xrotation Yrotation
					JOINT LeftArm
					{
						OFFSET 0.189788 0.067783 -0.017566
						CHANNELS 3 Zrotation Xrotation Yrotation
						JOINT LeftForeArm
						{
							OFFSET 0.281260 -0.000000 -0.000000
							CHANNELS 3 Zrotation Xrotation Yrotation
							JOINT LeftHand
							{
								OFFSET 0.196626 -0.000000 -0.000000
								CHANNELS 3 Zrotation Xrotation Yrotation
								JOINT LeftFingerBase
								{
									OFFSET 0.000000 0.000000 0.000000
									CHANNELS 3 Zrotation Xrotation Yrotation
									JOINT LeftHandIndex1
									{
										OFFSET 0.040372 -0.000000 -0.000000
										CHANNELS 3 Zrotation Xrotation Yrotation
										JOINT End_Site
										{
											OFFSET 0.032549 -0.000000 -0.000000
											CHANNELS 3 Zrotation Xrotation Yrotation
											End Site
											{
												OFFSET 0.009765 -0.000000 -0.000000
											}
										}
									}
								}
								JOINT LThumb
								{
									OFFSET 0.000000 0.000000 0.000000
									CHANNELS 3 Zrotation Xrotation Yrotation
									JOINT End_Site
									{
										OFFSET 0.033046 -0.000000 0.033046
										CHANNELS 3 Zrotation Xrotation Yrotation
										End Site
										{
											OFFSET 0.009914 -0.000000 0.009914
										}
									}
								}
							}
						}
					}
				}
				JOINT RightShoulder
				{
					OFFSET 0.000000 0.000000 0.000000
					CHANNELS 3 Zrotation Xrotation Yrotation
					JOINT RightArm
					{
						OFFSET -0.177042 0.077557 -0.022840
						CHANNELS 3 Zrotation Xrotation Yrotation
						JOINT RightForeArm
						{
							OFFSET -0.295874 -0.000000 -0.000000
							CHANNELS 3 Zrotation Xrotation Yrotation
							JOINT RightHand
							{
								OFFSET -0.194403 -0.000000 -0.000000
								CHANNELS 3 Zrotation Xrotation Yrotation
								JOINT RightFingerBase
								{
									OFFSET 0.000000 0.000000 0.000000
									CHANNELS 3 Zrotation Xrotation Yrotation
									JOINT RightHandIndex1
									{
										OFFSET -0.035138 -0.000000 -0.000000
										CHANNELS 3 Zrotation Xrotation Yrotation
										JOINT End_Site
										{
											OFFSET -0.028329 -0.000000 -0.000000
											CHANNELS 3 Zrotation Xrotation Yrotation
											End Site
											{
												OFFSET -0.008499 -0.000000 -0.000000
											}
										}
									}
								}
								JOINT RThumb
								{
									OFFSET 0.000000 0.000000 0.000000
									CHANNELS 3 Zrotation Xrotation Yrotation
									JOINT End_Site
									{
										OFFSET -0.028762 -0.000000 0.028762
										CHANNELS 3 Zrotation Xrotation Yrotation
										End Site
										{
											OFFSET -0.008628 -0.000000 0.008628
										}
									}
								}
							}
						}
					}
				}
			}
		}
	}
}
MOTION
Frames: 8
Frame Time: 0.03333333
0.000022 0.946073 0.000001 -0.000000 0.000000 -0.000000 3.411555 10.948513 9.804123 -22.872051 -12.221161 -7.488153 -5.659395 11.689481 4.935022 2.930037 -5.262329 11.061531 -0.449166 -10.954398 -4.681723 -0.000000 0.000000 -0.000000 3.205509 -5.305191 5.498677 18.188871 3.446678 -1.918356 -3.480184 11.080093 -3.665979 1.421085 0.056174 7.441517 0.094219 -6.798864 1.586059 -0.000000 0.000000 -0.000000 3.052340 4.750229 0.097820 -0.263667 -0.243734 0.000685 -0.000000 0.000000 -0.000000 -2.663143 -14.842678 -0.555108 4.214505 13.272511 -0.991781 -4.097230 11.587432 0.027183 -0.000000 0.000000 -0.000000 1.792477 -4.112128 12.429022 -58.625074 0.067516 -0.120250 6.167976 -1.420943 -25.923326 -0.000000 0.000000 -0.000000 6.539736 0.414162 7.239589 -3.667270 -0.007657 0.239184 -0.000000 0.000000 -0.000000 -13.522881 9.398737 20.528927 -0.000000 0.000000 -0.000000 -1.665591 8.477756 19.924796 55.144977 -1.365038 -2.613804 -3.859863 -0.715144 20.985638 -0.000000 0.000000 -0.000000 -12.165296 0.242277 -2.273263 4.824452 -0.093293 -2.214344 -0.000000 0.000000 -0.000000 3.134960 2.297491 -17.533807 -0.000000 0.000000 -0.000000
-0.001187 0.951170 0.005895 0.000000 0.000000 0.000000 3.234814 12.669909 11.121399 -22.996872 -14.165587 -8.707835 -6.430598 13.295861 5.723779 3.548502 -6.798738 12.559048 -0.488853 -11.625205 -4.799386 0.000000 0.000000 0.000000 4.046808 -5.845703 6.361323 17.536857 3.968138 -2.179263 -4.042611 12.548914 -4.086858 1.689580 -0.738209 8.834386 0.089970 -6.651659 1.548123 0.000000 0.000000 0.000000 3.069521 5.193314 0.080637 -0.382976 -0.210540 -0.002866 0.000000 0.000000 0.000000 -2.616146 -14.451318 -0.531684 4.333343 13.076893 -0.977836 -4.410922 11.187179 0.040940 0.000000 0.000000 0.000000 2.144442 -4.815505 14.668547 -64.789196 -0.787547 1.241205 4.371862 -1.114639 -28.594093 0.000000 0.000000 0.000000 8.173786 0.473603 6.621030 -4.369337 -0.021547 0.564825 0.000000 0.000000 0.000000 -15.825071 10.121595 24.991125 0.000000 0.000000 0.000000 -2.413870 9.362097 22.248780 60.645650 -0.130029 -0.222314 -2.908473 -0.616402 23.926895 0.000000 0.000000 0.000000 -13.423770 0.304672 -2.588480 5.623360 -0.115099 -2.343253 0.000000 0.000000 0.000000 5.212939 3.453942 -22.965827 0.000000 0.000000 0.000000
0.001039 0.953450 0.014937 0.000000 0.000000 0.000000 2.953244 14.896446 12.855956 -23.367387 -16.426019 -10.181594 -7.544609 14.499150 6.414109 4.396032 -8.318573 14.784230 -0.507503 -12.083212 -4.792303 0.000000 0.000000 0.000000 5.315548 -6.738785 7.745268 16.721617 4.916201 -2.654988 -4.973070 13.731006 -4.351686 2.119605 -0.939031 10.996147 0.085971 -6.453353 1.524873 0.000000 0.000000 0.000000 3.072670 5.620953 0.063287 -0.580889 -0.190767 -0.007805 0.000000 0.000000 0.000000 -2.458029 -14.169935 -0.511804 4.353383 12.936995 -0.964756 -4.946477 10.807591 0.066123 0.000000 0.000000 0.000000 2.727635 -5.769436 17.830370 -69.373258 -1.817706 2.626170 2.694671 -0.727206 -30.200125 0.000000 0.000000 0.000000 9.234036 0.454707 5.626063 -4.908364 -0.037070 0.864893 0.000000 0.000000 0.000000 -17.632520 10.521816 28.606462 0.000000 0.000000 0.000000 -3.563138 10.504069 25.433544 64.476888 1.339381 2.123593 -2.023015 -0.467557 26.024823 0.000000 0.000000 0.000000 -14.239389 0.339426 -2.716958 6.155477 -0.131807 -2.451007 0.000000 0.000000 0.000000 6.501640 3.948454 -27.493741 0.000000 0.000000 0.000000
-0.003017 0.952732 0.013353 0.000000 0.000000 0.000000 2.769938 16.501448 14.145281 -23.703801 -18.302076 -11.430351 -8.439780 15.751521 7.121369 5.033794 -9.571634 16.232824 -0.503979 -12.336573 -4.660701 0.000000 0.000000 0.000000 6.012925 -7.344324 8.605332 16.434035 5.551470 -2.980454 -5.752824 14.963224 -4.633891 2.439179 -1.215649 12.555122 0.082364 -6.198804 1.521007 0.000000 0.000000 0.000000 3.117142 5.970524 0.050880 -0.718037 -0.127106 -0.012258 0.000000 0.000000 0.000000 -2.471594 -13.966659 -0.501074 4.441760 12.814370 -0.956292 -5.180736 10.539677 0.073512 0.000000 0.000000 0.000000 2.979278 -6.426822 19.922501 -72.878700 -3.007698 4.072901 0.723677 -0.202181 -31.218250 0.000000 0.000000 0.000000 10.075178 0.374028 4.241179 -5.324886 -0.056230 1.209153 0.000000 0.000000 0.000000 -18.675956 10.498556 31.613987 0.000000 0.000000 0.000000 -4.423023 11.212141 27.553005 67.316008 2.953152 4.433871 -1.639961 -0.403852 27.666758 0.000000 0.000000 0.000000 -14.704109 0.374847 -2.904580 6.548516 -0.139457 -2.437314 0.000000 0.000000 0.000000 7.882284 4.449683 -31.161843 0.000000 0.000000 0.000000
-0.001348 0.956692 0.020155 0.000000 0.000000 0.000000 2.609870 17.864070 15.261588 -24.107401 -19.865189 -12.515173 -9.140198 16.818190 7.733281 5.657632 -10.759149 17.569495 -0.489394 -12.509543 -4.462959 0.000000 0.000000 0.000000 6.578133 -7.853154 9.323647 16.244320 6.189981 -3.310517 -6.422505 15.955339 -4.842254 2.773513 -1.705215 14.098610 0.076722 -5.914557 1.485052 0.000000 0.000000 0.000000 3.138924 6.315547 0.037467 -0.777826 -0.075715 -0.014645 0.000000 0.000000 0.000000 -2.371342 -13.827629 -0.491173 4.508205 12.753231 -0.952950 -5.443925 10.328546 0.082906 0.000000 0.000000 0.000000 3.161534 -6.971063 21.640349 -75.650703 -4.206848 5.416881 -0.985726 0.282419 -31.974191 0.000000 0.000000 0.000000 10.561557 0.293984 3.179839 -5.629122 -0.078190 1.590329 0.000000 0.000000 0.000000 -19.374439 10.273207 34.457888 0.000000 0.000000 0.000000 -5.164301 11.770143 29.312232 69.491696 4.518313 6.510494 -1.723988 -0.447640 29.109326 0.000000 0.000000 0.000000 -14.937837 0.372696 -2.842249 6.754731 -0.142347 -2.411720 0.000000 0.000000 0.000000 9.141954 4.882858 -33.857597 0.000000 0.000000 0.000000
-0.000843 0.954659 0.026729 0.000000 0.000000 0.000000 2.507321 18.961686 16.181774 -24.492010 -21.183475 -13.455858 -9.687539 17.712955 8.252606 6.239847 -11.793408 18.786404 -0.463981 -12.520718 -4.227619 0.000000 0.000000 0.000000 6.978487 -8.266627 9.876693 16.213143 6.853127 -3.663358 -7.081235 16.678797 -4.959627 3.139295 -2.332466 15.689118 0.068921 -5.521015 1.429307 0.000000 0.000000 0.000000 3.170200 6.633533 0.025395 -0.739041 -0.048123 -0.014396 0.000000 0.000000 0.000000 -2.166910 -13.810046 -0.485525 4.546066 12.787275 -0.958014 -5.722725 10.214053 0.094987 0.000000 0.000000 0.000000 3.252375 -7.389722 22.919822 -77.783447 -5.400847 6.692664 -2.384830 0.691034 -32.315134 0.000000 0.000000 0.000000 10.792720 0.221961 2.349368 -5.831630 -0.101249 1.987628 0.000000 0.000000 0.000000 -19.748581 9.924340 36.980235 0.000000 0.000000 0.000000 -5.732739 12.166921 30.620494 71.083930 5.890009 8.237756 -2.129059 -0.576092 30.278554 0.000000 0.000000 0.000000 -15.128204 0.339242 -2.554294 6.866731 -0.143138 -2.385481 0.000000 0.000000 0.000000 10.025763 5.161827 -35.603683 0.000000 0.000000 0.000000
-0.000995 0.953542 0.033122 0.000000 0.000000 0.000000 2.520000 19.799907 16.910717 -24.920060 -22.317252 -14.303273 -10.108666 18.502706 8.708476 6.746322 -12.693049 19.784699 -0.435182 -12.460354 -3.984772 0.000000 0.000000 0.000000 7.294663 -8.682920 10.383857 16.202354 7.537542 -4.029022 -7.600690 17.341144 -5.073456 3.434545 -2.963733 16.873052 0.063162 -5.149124 1.404618 0.000000 0.000000 0.000000 3.243988 6.847410 0.019039 -0.725644 -0.012387 -0.014874 0.000000 0.000000 0.000000 -2.018895 -13.812579 -0.482245 4.591853 12.833532 -0.964689 -5.951629 10.116001 0.104358 0.000000 0.000000 0.000000 3.287395 -7.752720 23.987092 -79.412460 -6.430772 7.740534 -3.569960 1.033463 -32.281191 0.000000 0.000000 0.000000 10.861960 0.140043 1.472921 -5.961809 -0.120439 2.312540 0.000000 0.000000 0.000000 -19.875065 9.578992 38.882747 0.000000 0.000000 0.000000 -6.205025 12.497635 31.737092 72.154207 7.069460 9.691944 -2.661420 -0.736956 30.950266 0.000000 0.000000 0.000000 -15.300287 0.339478 -2.526992 6.903850 -0.138843 -2.301456 0.000000 0.000000 0.000000 10.630906 5.309302 -37.021766 0.000000 0.000000 0.000000
-0.000969 0.952945 0.040560 0.000000 0.000000 0.000000 2.635926 20.421493 17.473989 -25.411640 -23.245259 -15.047595 -10.383840 19.131648 9.064974 7.185175 -13.505693 20.582865 -0.403557 -12.306573 -3.741910 0.000000 0.000000 0.000000 7.498717 -9.106278 10.829284 16.288497 8.275241 -4.432280 -8.055158 17.875178 -5.154747 3.687911 -3.651400 17.790595 0.056806 -4.735025 1.373911 0.000000 0.000000 0.000000 3.319991 6.964556 0.016661 -0.706952 0.023234 -0.015248 0.000000 0.000000 0.000000 -1.882172 -13.867915 -0.481816 4.657737 12.932353 -0.977675 -6.144427 10.062394 0.112902 0.000000 0.000000 0.000000 3.281986 -8.047461 24.818539 -80.699197 -7.266405 8.548818 -4.438082 1.270496 -31.935892 0.000000 0.000000 0.000000 10.793142 0.058550 0.619781 -6.023684 -0.136499 2.593850 0.000000 0.000000 0.000000 -19.839332 9.257348 40.316259 0.000000 0.000000 0.000000 -6.554620 12.771899 32.659356 72.864993 8.060699 10.905300 -3.225492 -0.901880 31.235824 0.000000 0.000000 0.000000 -15.542866 0.358485 -2.626294 6.927568 -0.135503 -2.238394 0.000000 0.000000 0.000000 10.963671 5.346753 -38.110154 0.000000 0.000000 0.000000
